<svg width="64" height="64" viewBox="0 0 64 64" fill="none" xmlns="http://www.w3.org/2000/svg">
<rect width="64" height="64" fill="#14120F"/>
<path d="M4.40887 44V21.6H14.1369C15.5449 21.6 16.7715 21.8453 17.8169 22.336C18.8622 22.8267 19.6729 23.52 20.2489 24.416C20.8249 25.312 21.1129 26.368 21.1129 27.584V27.968C21.1129 29.312 20.7929 30.4 20.1529 31.232C19.5129 32.064 18.7235 32.672 17.7849 33.056V33.632C18.6382 33.6747 19.2995 33.9733 19.7689 34.528C20.2382 35.0613 20.4729 35.776 20.4729 36.672V44H16.2489V37.28C16.2489 36.768 16.1102 36.352 15.8329 36.032C15.5769 35.712 15.1395 35.552 14.5209 35.552H8.63288V44H4.40887ZM8.63288 31.712H13.6889C14.6915 31.712 15.4702 31.4453 16.0249 30.912C16.6009 30.3573 16.8889 29.632 16.8889 28.736V28.416C16.8889 27.52 16.6115 26.8053 16.0569 26.272C15.5022 25.7173 14.7129 25.44 13.6889 25.44H8.63288V31.712ZM29.8251 44V36.288L22.2091 21.6H26.9131L31.6491 31.2H32.2251L36.9611 21.6H41.6651L34.0491 36.288V44H29.8251ZM51.1849 44.448C49.4569 44.448 47.9315 44.1387 46.6089 43.52C45.2862 42.9013 44.2515 42.016 43.5049 40.864C42.7582 39.712 42.3849 38.3253 42.3849 36.704V35.808H46.5449V36.704C46.5449 38.048 46.9609 39.0613 47.7929 39.744C48.6249 40.4053 49.7555 40.736 51.1849 40.736C52.6355 40.736 53.7129 40.448 54.4169 39.872C55.1422 39.296 55.5049 38.56 55.5049 37.664C55.5049 37.0453 55.3235 36.544 54.9609 36.16C54.6195 35.776 54.1075 35.4667 53.4249 35.232C52.7635 34.976 51.9529 34.7413 50.9929 34.528L50.2569 34.368C48.7209 34.0267 47.3982 33.6 46.2889 33.088C45.2009 32.5547 44.3582 31.8613 43.7609 31.008C43.1849 30.1547 42.8969 29.0453 42.8969 27.68C42.8969 26.3147 43.2169 25.152 43.8569 24.192C44.5182 23.2107 45.4355 22.464 46.6089 21.952C47.8035 21.4187 49.2009 21.152 50.8009 21.152C52.4009 21.152 53.8195 21.4293 55.0569 21.984C56.3155 22.5173 57.2969 23.328 58.0009 24.416C58.7262 25.4827 59.0889 26.8267 59.0889 28.448V29.408H54.9289V28.448C54.9289 27.5947 54.7582 26.912 54.4169 26.4C54.0969 25.8667 53.6275 25.4827 53.0089 25.248C52.3902 24.992 51.6542 24.864 50.8009 24.864C49.5209 24.864 48.5715 25.1093 47.9529 25.6C47.3555 26.0693 47.0569 26.72 47.0569 27.552C47.0569 28.1067 47.1955 28.576 47.4729 28.96C47.7715 29.344 48.2089 29.664 48.7849 29.92C49.3609 30.176 50.0969 30.4 50.9929 30.592L51.7289 30.752C53.3289 31.0933 54.7155 31.5307 55.8889 32.064C57.0835 32.5973 58.0115 33.3013 58.6729 34.176C59.3342 35.0507 59.6649 36.1707 59.6649 37.536C59.6649 38.9013 59.3129 40.1067 58.6089 41.152C57.9262 42.176 56.9449 42.9867 55.6649 43.584C54.4062 44.16 52.9129 44.448 51.1849 44.448Z" fill="white" fill-opacity="0.9"/>
</svg>
