<svg width="1080" height="1080" viewBox="0 0 1080 1080" fill="none" xmlns="http://www.w3.org/2000/svg">
<path d="M292.19 459.54C286.15 461.64 274.35 467.45 274.26 461.01C273.89 444.64 273.82 428.55 274.02 412.78C274.62 366.59 300.56 339.02 318.31 328.85C339.91 316.7 344.28 323.92 348.12 322.01C352.51 319.98 355.38 312.02 355.13 307.77C354.6 299.75 344.17 296.89 331.11 304.23C330.46 304.6 329.8 304.98 329.15 305.36C325.78 307.3 322.38 309.78 318.65 312.95C303.29 326.35 282.52 355.14 274.64 385.75C274.73 382.94 274.83 380.14 274.94 377.35C275.23 372.17 275.55 367.04 275.89 361.94C276.33 352.79 276.26 344.46 273.92 342.68C264.27 350.12 254.81 358.09 245.87 366.49C249.3 369.78 250.28 386.46 250.16 397.91C249.83 422.73 250.31 448.38 251.62 474.79C251.86 480.89 242.83 487.22 237.89 491.42C237.94 492.16 238 492.89 238.06 493.63C253.01 483.31 271.47 472.27 292.23 462.15C292.22 461.28 292.21 460.41 292.2 459.55L292.19 459.54Z" fill="#F5F1EB"/>
<path d="M368.8 317.89C377 324.25 389.71 304.07 407.85 295.61C422.27 289 427.49 293.47 429.57 300.54C436.25 319.05 397.78 344.58 382.98 357.48C365.44 373.62 347.8 394.4 351.75 416.16C354.82 432.04 372.43 433.42 392.37 429.68C431.5 422.93 458.79 398.05 469.52 386.59C470.38 404.11 466.99 423.66 485.96 424.72C505.16 426.25 522.75 405.31 522.48 405C521.53 404.13 520.58 403.26 519.63 402.4C505.04 419.26 497.37 411.56 497.33 399.75C497.18 388.29 495.62 351.76 481.98 301.16C467.09 250.24 437.54 245.88 406.52 265.68C374.88 285.66 360.4 311.85 368.79 317.9L368.8 317.89ZM389.5 293.19C393.22 283.38 403 271.84 415.44 266.34C429.77 259.96 447.82 265.71 457.85 305.87C463.67 330.94 467.86 356.46 469.27 381.62C462.36 389.4 446.85 399.73 435.09 405.51C418.33 414.02 391.7 415.6 384.94 401.84C377.94 387.65 390.58 368.46 412.85 346.03C434.7 323.8 436.23 309.09 432.76 298.38C427.88 284.21 412.14 285.9 395.31 294.53C391.9 296.13 388.05 296.84 389.5 293.19Z" fill="#F5F1EB"/>
<path d="M474.97 256.47C499.26 293.35 526.21 339.88 542.4 387.68C554.01 423.59 557.98 431.94 569.25 433.59C579.63 434.97 586.38 427.83 592.5 390.97C599.99 341.64 595.22 284.69 586.65 238.92C584.79 228.68 593.75 226.51 599.61 225.49C599.09 224.36 598.57 223.25 598.05 222.15C585.69 222.19 573.49 222.89 561.36 224.13C561.83 225.19 562.3 226.25 562.77 227.34C566.84 227.57 581.19 228.43 582.99 239.08C591.42 284.8 596.18 341.64 588.63 390.68C587.13 401.45 584.83 404.99 579.65 404.48C574.67 403.98 572.99 399.3 569.91 389.63C554.13 339.2 525.92 288.61 500.03 249.71C493.96 240.5 507.15 237.32 510.67 235.86C510.28 234.82 509.89 233.8 509.5 232.77C491.06 237 472.74 242.44 454.32 248.91C454.62 249.88 454.92 250.85 455.22 251.83C461.7 250.87 470.74 249.91 474.97 256.46V256.47Z" fill="#F5F1EB"/>
<path d="M687.53 443.61C720.99 441.65 740.55 406.64 744.03 371.72C743.14 371.18 742.24 370.63 741.35 370.07C736.75 401.65 719.46 431.25 691.42 427.82C666.83 424.61 650.57 377.98 649.88 377.79C648.02 348 643.86 300.6 679.65 306.53C682.92 307.21 686.17 307.92 689.41 308.66C711.41 312.85 713.27 300.49 709.08 286.97C697.78 249.99 658.9 222.16 638.73 220.56C600.63 215.72 596.32 263.15 610.73 324.65C625.62 381.83 651.44 445.7 687.53 443.6V443.61ZM634.94 224.38C655.84 226.18 682.56 259.96 691.42 290.32C694.87 301.79 686.59 300.08 680.78 299.03C643.75 292.41 644.28 334.4 646.29 366.89C640.91 349.68 636.01 333.11 630.99 313.55C621.64 273.66 605.18 220.48 634.94 224.37V224.38Z" fill="#F5F1EB"/>
<path d="M426.52 440.61C426.6 439.62 426.68 438.62 426.76 437.63C411.56 438.85 396.08 441.13 380.66 444.49C380.61 445.45 380.56 446.42 380.5 447.39C385.56 446.71 403.11 443.73 398.64 452.99C368.57 513.2 341.7 580.5 330 645.01C320.34 687.94 320.17 743.05 301.04 735.77C291.54 732.13 280.27 714.15 282.23 686.63C281.79 650.89 325.06 628.82 332.52 596.33C336.11 578.46 331.36 553.04 317.72 534.86C305.56 518.77 293.52 503.86 282 490.92C276.83 485.51 293.75 477.27 298.18 474.86C298.16 473.97 298.15 473.08 298.14 472.2C275.53 482.44 255.46 493.75 239.37 504.08C239.43 504.83 239.49 505.57 239.55 506.32C245.45 503.31 251.31 500.73 255.9 505.18C266.9 515.81 274.05 523.3 286.07 537.37C301.86 555.29 325.63 573.3 328.29 590.26C331.13 608.61 314.3 619.96 297.44 632.52C280.24 645.15 262.85 658.96 261.62 679.25C258.76 710.89 285.11 733.99 302.34 741.12C324.51 749.55 322.12 701.53 333.44 644.79C345.41 579.56 373.09 512.23 403.37 452.29C407.5 443.47 418.28 442.1 426.51 440.62L426.52 440.61Z" fill="#F5F1EB"/>
<path d="M484.18 433.89C436.32 430.62 390.99 478.22 387.06 528.01C383.02 575.62 411.35 617.84 448.57 622.24C489.22 625.08 527.93 584.86 542.9 534.03C556.71 484.74 530.16 436.73 484.19 433.89H484.18ZM515.31 536.57C505.05 569.14 487.9 620.67 454.96 617.61C418.53 613.01 409.81 554.17 415.44 517.32C419.56 488.96 437.57 436.19 477.56 437.86C521.4 440.7 527.23 498.77 515.32 536.58L515.31 536.57Z" fill="#F5F1EB"/>
<path d="M647.06 624.35C646.79 634.51 651.82 640.42 663.01 638.95C677.1 637.13 694.18 622.93 703.81 611.31C702.79 610.88 701.77 610.45 700.75 610C683.35 629.59 675.21 624.57 676.11 613.6C679.43 566.31 687.12 516.5 688.57 459.08C681.02 459.51 673.45 459.75 665.85 459.78C664.56 486.6 661.43 511.71 658.06 535.55C652.66 564.26 615.56 627.61 586.02 624.72C564.29 622.45 567 593.39 577.3 552.79C584.84 521.76 592.96 489.63 596.14 454.36C582.72 452.39 569.12 450 555.18 447.55C555.06 448.71 554.94 449.86 554.82 451.01C559.88 452.26 571.93 456.23 570.75 464.97C566.8 493.78 559.57 520.73 552.74 547.42C538.98 597.83 537.84 636.51 574.29 640.26C607.29 643.12 643.01 588.4 655.2 555.39C652.25 575.5 649.44 594.84 647.46 613.83C647.08 617.46 647.04 621.07 647.06 624.35Z" fill="#F5F1EB"/>
<path d="M718.96 456.36C722.68 467.41 724.28 494.69 723.9 510.98C723.18 546.79 721.66 580.56 720.57 613.18C720.35 620.68 707.6 624.9 699.52 627.59C699.48 628.55 699.43 629.52 699.39 630.48C723.06 624.87 746.53 616.76 768.13 607.34C768.13 606.44 768.13 605.53 768.12 604.63C762.05 606.53 748.7 611.19 748.76 603.85C748.93 585.45 748.98 566.7 748.82 547.52C748.84 489.59 768 469.46 782.06 466.76C799.11 462.88 803.25 471.43 806.16 470.64C809.41 469.79 810.79 462.61 810.15 458.27C808.95 450.17 800 442.97 789.58 444.3C789.06 444.39 788.55 444.47 788.03 444.56C785.37 445 782.75 446.02 779.94 447.69C768.41 454.72 754.51 478.61 748.34 513.8C748.26 510.2 748.17 506.58 748.08 502.94C747.99 496.25 747.86 489.5 747.67 482.69C747.2 470.35 746.01 458.11 743.53 452.96C735.44 454.22 727.24 455.38 718.98 456.37L718.96 456.36Z" fill="#F5F1EB"/>
<path d="M411.95 734.18C402.56 727.62 393.43 721.03 384.53 714.62C369.27 703.72 359.83 690.77 357.74 673.53C355.78 656.07 366.47 638.11 382.23 637.26C394.84 637.08 406.57 643.17 418.88 662.19C422.58 667.58 425.57 672.6 429.22 680.54C429.94 679.51 430.66 678.47 431.39 677.45C417.67 645.7 402.75 626.35 377.46 627.43C376.49 627.47 375.52 627.51 374.55 627.55C344.38 631.15 337.87 666.38 340.64 684.17C343.36 703 356.68 724.97 372.28 737.11C383.13 745.38 394.39 753.87 406.01 762.16C421.27 774.28 437.31 787.62 444.77 806.37C450.78 822.75 448.86 841.26 428.13 838.16C406 835.25 373.97 810.9 352.1 765.56C351.3 765.77 350.5 765.99 349.7 766.19C368.5 807.28 403.95 845.34 433.16 848.71C433.91 848.82 434.66 848.92 435.41 849.02C470.25 851.5 470.15 825.36 459.95 795.81C449.98 768.18 427.41 744.73 411.95 734.16V734.18Z" fill="#F5F1EB"/>
<path d="M514.12 637.88C471.22 629.56 436.21 681.52 453 748.54C469.95 814.42 520.98 852.55 553.92 844.41C592.26 837.27 605.55 783.88 596.8 732.85C587.86 684.72 555.24 645.79 514.12 637.88ZM557.84 839.05C525.62 848.04 485.53 789.72 474.7 739.05C464.36 701.71 471.62 635.43 508.32 642.05C545.86 648.64 563.07 704.03 572.77 744.61C579.83 780.23 589.15 833.05 557.84 839.05Z" fill="#F5F1EB"/>
<path d="M768.96 737.65C753.26 759.81 746.23 758.74 746.15 749.73C746.29 711 747.57 669.51 748.08 625.81C738.72 629.42 729.12 632.74 719.43 635.67C718.83 656.11 718.39 676.05 718.33 695.49C718.13 707.69 709.37 728.87 700.44 749.07C691.02 769.13 681.43 788.2 668.26 793.05C650.27 800.53 642.29 775.31 636.19 737.53C631.78 708.91 630.03 680.11 631.33 651.19C615.06 652.04 599.21 651.79 583.88 650.82C583.84 651.88 583.8 652.94 583.77 654C589.33 654.73 603.05 656.67 603.01 664.34C602.82 689.99 605.58 716.02 610.62 741.97C621.07 791.93 633.92 823.62 662.84 810.68C677.09 805.12 686.71 787 696.46 767.59C705.75 747.99 715.17 727.1 718.35 711.77C718.47 728.37 718.89 744.59 719.69 760.4C719.84 763.43 720.3 766.31 720.73 768.92C721.84 777.13 726.68 779.99 736.2 774.69C748.1 768.06 762.88 750.45 771.82 737.51C770.86 737.56 769.91 737.62 768.95 737.65H768.96Z" fill="#F5F1EB"/>
<path d="M815.74 710.64C818.45 656.77 817.41 598.67 812.07 537.44C800.15 542.87 786.9 548.62 772.74 554.11C772.77 555.03 772.81 555.96 772.84 556.88C779.76 555.05 790.24 551.73 790.55 558.08C793.89 619.18 792.88 677.26 789.77 730.4C789.45 736.2 777.75 745.24 770.49 750.5C770.46 751.28 770.42 752.06 770.4 752.84C791.6 739.16 813.54 722.65 832.92 703.95C832.95 703.25 832.97 702.56 832.99 701.86C825.99 708.09 815.46 716.21 815.73 710.63L815.74 710.64Z" fill="#F5F1EB"/>
<path d="M903.47 538.72C900.29 319.16 697.98 139.26 478.71 173.63C371.93 189.36 276.85 257.37 224.99 351.44C193.14 408.36 176.34 473.68 176.35 538.72C176.17 603.77 192.98 669.15 224.82 726.1C299.83 862.74 457.3 934.53 609.98 903.4C780.21 870.82 909.33 712.26 903.47 538.72ZM874.09 640.84C819.88 811.31 644.77 914.66 469.4 880.68C370.64 861.94 280.11 800.5 227.89 714.06C226.86 712.35 225.54 710.32 224.44 708.48L223.38 706.57L219.17 698.9C217.97 696.63 216.11 693.54 215.06 691.17C212.88 686.54 209.49 680.05 207.54 675.35C188.37 632.66 178.82 585.49 178.54 538.71L179.02 521.1C179.4 515.24 179.89 509.39 180.36 503.54C180.87 498.52 181.98 491.16 182.64 486.08C183.49 480.22 185.14 472.47 186.22 466.61C187.22 462.68 188.83 455.67 189.88 451.66C191.11 446.64 193.34 439.84 194.85 434.8C196.37 429.86 198.9 423.19 200.68 418.23C202.47 413.38 205.34 406.88 207.38 402.01C209.33 397.33 212.7 390.85 214.9 386.18C215.93 383.88 217.81 380.72 219 378.45L223.21 370.78L224.27 368.87C241.6 339.56 263.03 312.33 287.84 289.14C466.9 119.5 771.71 167.57 866.65 402.37C897.3 477.74 899.24 563.73 874.08 640.86L874.09 640.84Z" fill="#F5F1EB"/>
</svg>
