<svg width="1000" height="1000" viewBox="0 0 1000 1000" fill="none" xmlns="http://www.w3.org/2000/svg">
<path d="M168.669 392.571C160.593 395.375 144.816 403.132 144.696 394.534C144.201 372.677 144.107 351.194 144.375 330.138C145.177 268.466 179.86 231.654 203.592 218.076C232.472 201.853 238.315 211.493 243.449 208.943C249.319 206.233 253.156 195.604 252.822 189.93C252.113 179.222 238.168 175.403 220.706 185.203C219.837 185.697 218.955 186.205 218.086 186.712C213.58 189.302 209.034 192.614 204.047 196.846C183.51 214.738 155.74 253.178 145.204 294.048C145.324 290.296 145.458 286.557 145.605 282.832C145.993 275.916 146.421 269.066 146.875 262.257C147.463 250.04 147.37 238.918 144.241 236.541C131.339 246.475 118.69 257.116 106.737 268.332C111.323 272.725 112.634 294.996 112.473 310.284C112.032 343.423 112.674 377.67 114.425 412.933C114.746 421.077 102.673 429.529 96.0677 435.137C96.1346 436.125 96.2148 437.099 96.295 438.087C116.284 424.308 140.965 409.568 168.722 396.056C168.709 394.894 168.696 393.733 168.682 392.584L168.669 392.571Z" fill="#E76F51"/>
<path d="M271.099 203.442C282.063 211.934 299.057 184.99 323.311 173.694C342.591 164.868 349.57 170.837 352.351 180.277C361.282 204.991 309.847 239.078 290.058 256.302C266.607 277.852 243.021 305.597 248.303 334.651C252.407 355.853 275.953 357.696 302.613 352.702C354.931 343.69 391.419 310.47 405.766 295.169C406.915 318.562 402.383 344.665 427.747 346.08C453.418 348.123 476.936 320.164 476.575 319.75C475.305 318.588 474.035 317.427 472.765 316.278C453.257 338.79 443.002 328.509 442.949 312.74C442.748 297.439 440.662 248.665 422.425 181.104C402.517 113.117 363.007 107.295 321.532 133.732C279.228 160.409 259.868 195.377 271.086 203.455L271.099 203.442ZM298.776 170.463C303.75 157.365 316.826 141.957 333.459 134.613C352.618 126.095 376.752 133.772 390.162 187.393C397.944 220.866 403.546 254.94 405.431 288.533C396.192 298.921 375.455 312.714 359.731 320.431C337.323 331.793 301.717 333.903 292.679 315.531C283.32 296.584 300.22 270.962 329.996 241.014C359.21 211.333 361.256 191.692 356.616 177.393C350.091 158.473 329.046 160.729 306.544 172.252C301.985 174.388 296.837 175.336 298.776 170.463Z" fill="#E76F51"/>
<path d="M413.052 121.435C445.529 170.677 481.562 232.803 503.209 296.625C518.732 344.571 524.04 355.72 539.108 357.923C552.987 359.766 562.012 350.232 570.194 301.017C580.209 235.153 573.831 159.114 562.373 98.0025C559.886 84.3302 571.866 81.4328 579.701 80.0709C579.005 78.5622 578.31 77.0801 577.615 75.6114C561.089 75.6648 544.777 76.5994 528.559 78.2551C529.187 79.6704 529.816 81.0857 530.444 82.541C535.886 82.8481 555.072 83.9964 557.479 98.2161C568.75 159.261 575.115 235.153 565.02 300.63C563.014 315.01 559.939 319.737 553.013 319.056C546.355 318.388 544.109 312.139 539.991 299.228C518.892 231.895 481.174 164.348 446.559 112.409C438.443 100.112 456.078 95.8662 460.785 93.9168C460.263 92.5282 459.742 91.1663 459.22 89.7911C434.565 95.4389 410.071 102.702 385.443 111.341C385.844 112.636 386.245 113.931 386.646 115.24C395.31 113.958 407.397 112.676 413.052 121.422V121.435Z" fill="#E76F51"/>
<path d="M697.253 371.302C741.99 368.685 768.143 321.94 772.796 275.315C771.606 274.594 770.402 273.86 769.212 273.112C763.062 315.277 739.945 354.799 702.454 350.219C669.576 345.933 647.836 283.673 646.914 283.42C644.427 243.644 638.865 180.357 686.717 188.274C691.089 189.182 695.435 190.13 699.767 191.118C729.181 196.713 731.668 180.21 726.066 162.158C710.958 112.783 658.974 75.6248 632.006 73.4885C581.064 67.0262 575.302 130.354 594.569 212.468C614.477 288.814 648.999 374.092 697.253 371.288V371.302ZM626.938 78.5889C654.882 80.9922 690.608 126.095 702.454 166.631C707.067 181.946 695.996 179.662 688.228 178.26C638.718 169.422 639.426 225.486 642.114 268.866C634.92 245.888 628.369 223.764 621.657 197.647C609.156 144.387 587.148 73.3816 626.938 78.5755V78.5889Z" fill="#E76F51"/>
<path d="M348.273 367.296C348.38 365.974 348.487 364.639 348.594 363.317C328.271 364.946 307.574 367.99 286.956 372.476C286.89 373.758 286.823 375.053 286.743 376.349C293.508 375.441 316.973 371.462 310.996 383.826C270.792 464.217 234.866 554.075 219.222 640.208C206.306 697.527 206.079 771.109 180.502 761.389C167.8 756.529 152.731 732.523 155.352 695.778C154.764 648.059 212.617 618.591 222.592 575.211C227.391 551.351 221.041 517.411 202.803 493.137C186.545 471.654 170.447 451.746 155.044 434.469C148.132 427.246 170.755 416.244 176.678 413.026C176.651 411.838 176.638 410.649 176.624 409.474C146.394 423.147 119.559 438.248 98.0465 452.04C98.1267 453.042 98.207 454.03 98.2872 455.031C106.176 451.012 114.011 447.567 120.148 453.509C134.855 467.702 144.415 477.702 160.486 496.488C181.598 520.415 213.379 544.462 216.936 567.106C220.733 591.607 198.231 606.761 175.688 623.531C152.691 640.395 129.44 658.834 127.796 685.925C123.972 728.17 159.203 759.013 182.24 768.532C211.882 779.788 208.686 715.672 223.822 639.914C239.826 552.82 276.835 462.922 317.321 382.891C322.843 371.115 337.256 369.285 348.26 367.309L348.273 367.296Z" fill="#E76F51"/>
<path d="M425.367 358.324C361.376 353.957 300.768 417.512 295.514 483.991C290.112 547.559 327.99 603.931 377.755 609.806C432.105 613.598 483.862 559.896 503.877 492.029C522.342 426.218 486.844 362.115 425.38 358.324H425.367ZM466.989 495.42C453.271 538.907 430.34 607.709 386.298 603.624C337.59 597.482 325.931 518.92 333.459 469.718C338.967 431.852 363.047 361.394 416.515 363.624C475.131 367.416 482.926 444.95 467.002 495.434L466.989 495.42Z" fill="#E76F51"/>
<path d="M643.143 612.623C642.782 626.188 649.508 634.079 664.469 632.116C683.308 629.686 706.144 610.727 719.02 595.212C717.656 594.638 716.293 594.064 714.929 593.463C691.664 619.619 680.781 612.916 681.984 598.269C686.423 535.129 696.705 468.623 698.644 391.957C688.549 392.531 678.428 392.851 668.266 392.891C666.541 428.701 662.356 462.227 657.851 494.058C650.631 532.391 601.027 616.975 561.53 613.117C532.477 610.086 536.1 571.285 549.871 517.077C559.953 475.646 570.81 432.747 575.061 385.655C557.118 383.024 538.935 379.833 520.296 376.562C520.136 378.111 519.975 379.646 519.815 381.182C526.58 382.851 542.692 388.151 541.114 399.821C535.833 438.288 526.166 474.271 517.034 509.907C498.636 577.214 497.112 628.859 545.847 633.866C589.969 637.684 637.728 564.623 654.027 520.548C650.082 547.399 646.325 573.221 643.678 598.577C643.17 603.423 643.116 608.243 643.143 612.623Z" fill="#E76F51"/>
<path d="M739.276 388.325C744.25 403.079 746.389 439.503 745.881 461.253C744.918 509.066 742.886 554.155 741.429 597.709C741.135 607.723 724.087 613.357 713.284 616.949C713.231 618.231 713.164 619.526 713.11 620.808C744.758 613.317 776.138 602.489 805.018 589.911C805.018 588.71 805.018 587.495 805.005 586.293C796.889 588.83 779.04 595.052 779.12 585.252C779.347 560.684 779.414 535.649 779.2 510.041C779.227 432.693 804.844 405.816 823.643 402.211C846.44 397.031 851.975 408.446 855.866 407.392C860.211 406.257 862.056 396.67 861.201 390.875C859.596 380.06 847.63 370.447 833.698 372.223C833.002 372.343 832.321 372.45 831.625 372.57C828.069 373.157 824.566 374.519 820.809 376.749C805.393 386.135 786.808 418.033 778.558 465.018C778.451 460.211 778.331 455.378 778.211 450.518C778.09 441.586 777.916 432.573 777.662 423.481C777.034 407.004 775.443 390.662 772.127 383.785C761.311 385.468 750.347 387.017 739.303 388.338L739.276 388.325Z" fill="#E76F51"/>
<path d="M328.792 759.266C316.238 750.507 304.03 741.709 292.131 733.15C271.728 718.597 259.106 701.306 256.312 678.287C253.691 654.975 267.984 630.995 289.056 629.86C305.916 629.62 321.599 637.751 338.058 663.146C343.005 670.343 347.003 677.046 351.883 687.647C352.846 686.272 353.808 684.883 354.784 683.521C336.44 641.129 316.492 615.293 282.678 616.735C281.381 616.789 280.084 616.842 278.787 616.895C238.449 621.702 229.745 668.741 233.448 692.494C237.085 717.635 254.894 746.969 275.752 763.178C290.259 774.22 305.314 785.556 320.85 796.625C341.254 812.807 362.7 830.619 372.674 855.653C380.71 877.524 378.142 902.238 350.426 898.099C320.837 894.213 278.012 861.702 248.771 801.164C247.701 801.445 246.631 801.738 245.562 802.006C270.698 856.868 318.096 907.685 357.151 912.185C358.154 912.332 359.156 912.465 360.159 912.599C406.742 915.91 406.608 881.008 392.97 841.554C379.64 804.663 349.463 773.352 328.792 759.24V759.266Z" fill="#E76F51"/>
<path d="M465.397 630.688C408.039 619.579 361.229 688.955 383.678 778.439C406.341 866.401 474.57 917.312 518.612 906.444C569.874 896.91 587.643 825.625 575.944 757.49C563.991 693.228 520.376 641.249 465.397 630.688ZM523.853 899.287C480.773 911.29 427.172 833.422 412.692 765.769C398.867 715.913 408.573 627.417 457.643 636.256C507.835 645.055 530.845 719.01 543.815 773.192C553.254 820.752 565.715 891.276 523.853 899.287Z" fill="#E76F51"/>
<path d="M806.128 763.899C785.137 793.487 775.737 792.058 775.63 780.028C775.817 728.317 777.529 672.92 778.211 614.572C765.696 619.392 752.861 623.825 739.905 627.737C739.102 655.028 738.514 681.652 738.434 707.608C738.167 723.897 726.454 752.176 714.514 779.147C701.919 805.931 689.097 831.393 671.488 837.869C647.435 847.856 636.766 814.182 628.61 763.739C622.713 725.526 620.374 687.073 622.112 648.459C600.358 649.594 579.166 649.26 558.669 647.965C558.616 649.381 558.562 650.796 558.522 652.211C565.956 653.186 584.3 655.776 584.247 666.017C583.993 700.264 587.683 735.019 594.422 769.667C608.394 836.373 625.575 878.685 664.242 861.408C683.295 853.984 696.157 829.791 709.193 803.875C721.614 777.705 734.209 749.813 738.461 729.345C738.621 751.509 739.183 773.166 740.252 794.275C740.453 798.32 741.068 802.166 741.643 805.651C743.127 816.612 749.598 820.431 762.327 813.355C778.237 804.502 797.999 780.99 809.952 763.712C808.668 763.779 807.398 763.859 806.115 763.899H806.128Z" fill="#E76F51"/>
<path d="M868.675 727.836C872.298 655.91 870.907 578.335 863.768 496.582C847.83 503.832 830.114 511.509 811.182 518.84C811.222 520.068 811.276 521.31 811.316 522.538C820.568 520.095 834.58 515.662 834.995 524.14C839.46 605.72 838.11 683.268 833.952 754.219C833.524 761.963 817.881 774.034 808.174 781.057C808.134 782.098 808.08 783.139 808.053 784.181C836.399 765.916 865.733 743.872 891.645 718.904C891.685 717.969 891.712 717.048 891.738 716.113C882.379 724.431 868.3 735.273 868.661 727.823L868.675 727.836Z" fill="#E76F51"/>
<path d="M985.973 498.291C981.721 205.138 711.225 -35.0621 418.053 10.8282C275.284 31.8307 148.159 122.637 78.8199 248.237C36.2353 324.236 13.7731 411.45 13.7865 498.291C13.5458 585.145 36.0214 672.439 78.5927 748.478C178.884 930.918 389.427 1026.77 593.566 985.206C821.17 941.706 993.808 729.999 985.973 498.291ZM946.691 634.64C874.21 862.249 640.081 1000.24 405.605 954.871C273.559 929.85 152.517 847.816 82.6973 732.402C81.3202 730.119 79.5553 727.409 78.0846 724.952L76.6673 722.402L71.0384 712.161C69.4339 709.13 66.947 705.004 65.5432 701.84C62.6284 695.658 58.0959 686.993 55.4886 680.717C29.8576 623.718 17.0889 560.738 16.7146 498.278L17.3563 474.765C17.8644 466.941 18.5196 459.13 19.148 451.319C19.8299 444.617 21.314 434.79 22.1964 428.007C23.3329 420.183 25.539 409.835 26.983 402.011C28.32 396.763 30.4727 387.404 31.8766 382.05C33.5211 375.347 36.5027 366.268 38.5216 359.538C40.5539 352.943 43.9366 344.037 46.3166 337.415C48.7099 330.939 52.5472 322.26 55.2747 315.758C57.8819 309.509 62.3877 300.857 65.3292 294.622C66.7064 291.551 69.22 287.332 70.8111 284.301L76.44 274.06L77.8573 271.51C101.028 232.375 129.681 196.018 162.853 165.055C402.263 -61.4453 809.805 2.73697 936.743 316.238C977.723 416.871 980.317 531.684 946.677 634.667L946.691 634.64Z" fill="#E76F51"/>
</svg>
